<?xml version="1.0" encoding="UTF-8"?>
<svg id="Capa_1" data-name="Capa 1" xmlns="http://www.w3.org/2000/svg" xmlns:xlink="http://www.w3.org/1999/xlink" viewBox="0 0 1560 1560">
  <defs>
    <style>
      .cls-1, .cls-2, .cls-3 {
        fill: none;
      }

      .cls-4 {
        clip-path: url(#clippath);
      }

      .cls-5 {
        fill: #fff;
      }

      .cls-6 {
        fill: url(#Degradado_sin_nombre_4-2);
      }

      .cls-7 {
        clip-path: url(#clippath-1);
      }

      .cls-2 {
        stroke-width: 10.48px;
      }

      .cls-2, .cls-3 {
        stroke: #66a8de;
        stroke-linecap: round;
        stroke-linejoin: round;
      }

      .cls-8 {
        fill: url(#Degradado_sin_nombre_4);
      }

      .cls-3 {
        stroke-width: 9.39px;
      }
    </style>
    <clipPath id="clippath">
      <path class="cls-1" d="M546.63,865.69c-67.4-28.38-101.09-65.57-101.08-102.75v208.05c0,58.28,33.68,108,101.08,136.39l393.51,165.65c96.29,40.54,174.32-11.29,174.32-115.75v-389.17l-206.64,87.02v162.62l-361.18-152.04"/>
    </clipPath>
    <linearGradient id="Degradado_sin_nombre_4" data-name="Degradado sin nombre 4" x1="-967.27" y1="1142.44" x2="-951.67" y2="1142.44" gradientTransform="translate(-74883.51 64778.2) rotate(90) scale(66.23 -66.23)" gradientUnits="userSpaceOnUse">
      <stop offset="0" stop-color="#31d4f0"/>
      <stop offset=".26" stop-color="#26bce6"/>
      <stop offset=".82" stop-color="#097ecd"/>
      <stop offset="1" stop-color="#0069c5"/>
    </linearGradient>
    <clipPath id="clippath-1">
      <path class="cls-1" d="M907.81,360.19v147.93l-361.18,152.08c-67.38,28.37-101.08,65.54-101.08,102.73-.01,37.18,33.69,74.37,101.08,102.75l42.97,18.09,497.74-209.56c14.99-6.29,27.11-24.58,27.11-40.83V273.17c-68.88,29.01-137.76,58.01-206.64,87.02h0Z"/>
    </clipPath>
    <linearGradient id="Degradado_sin_nombre_4-2" data-name="Degradado sin nombre 4" x1="-1022.99" y1="1093.65" x2="-1006.09" y2="1093.65" gradientTransform="translate(-67470.81 -73011.98) rotate(-180) scale(67.32 -67.32)" xlink:href="#Degradado_sin_nombre_4"/>
  </defs>
  <g>
    <rect class="cls-5" width="1560" height="1560" rx="313.51" ry="313.51"/>
    <g>
      <g class="cls-4">
        <rect class="cls-8" x="405.69" y="629.04" width="748.78" height="818.59" transform="translate(-464.66 1408.86) rotate(-69.66)"/>
      </g>
      <g class="cls-7">
        <rect class="cls-6" x="387.85" y="204.04" width="874.53" height="817.2" transform="translate(-202.17 583.88) rotate(-34.99)"/>
      </g>
    </g>
  </g>
  <g>
    <g>
      <path class="cls-2" d="M681.53,484.3h-184.69c-13.78,0-24.94-11.64-24.94-25.97v-145.96c0-14.34,11.16-25.98,24.94-25.98h239.98c13.76,0,24.94,11.64,24.94,25.98v103.37"/>
      <g>
        <g>
          <path class="cls-2" d="M499.03,436.46h0c0-20.69,16.1-37.46,35.97-37.46h22.67c19.86,0,35.97,16.77,35.97,37.46h0"/>
          <ellipse class="cls-2" cx="546.33" cy="358.76" rx="23.59" ry="24.53"/>
        </g>
        <g>
          <line class="cls-2" x1="624.04" y1="385.35" x2="689.56" y2="385.35"/>
          <line class="cls-2" x1="624.04" y1="418.91" x2="727.64" y2="418.91"/>
        </g>
      </g>
    </g>
    <circle class="cls-3" cx="749.85" cy="484.46" r="41.93"/>
    <polyline class="cls-3" points="731.2 478.22 747.54 498.86 768.49 470.06"/>
  </g>
</svg>